<?xml version="1.0" standalone="no"?>
<!DOCTYPE svg PUBLIC "-//W3C//DTD SVG 20010904//EN"
 "http://www.w3.org/TR/2001/REC-SVG-20010904/DTD/svg10.dtd">
<svg version="1.0" xmlns="http://www.w3.org/2000/svg"
 width="512.000000pt" height="512.000000pt" viewBox="0 0 512.000000 512.000000"
 preserveAspectRatio="xMidYMid meet">

    <style>
        path {
            fill: white;
        }
        @media (prefers-color-scheme: dark) {
            path { 
                fill: white;
                }
        }
    </style>

<g transform="translate(0.000000,512.000000) scale(0.100000,-0.100000)"
fill="#000000" stroke="none">
<path d="M1153 5080 c-59 -35 -63 -56 -63 -294 l0 -214 -248 -4 -248 -3 -76
-38 c-88 -43 -152 -107 -195 -195 l-28 -57 0 -1975 0 -1975 27 -57 c31 -67
105 -149 165 -185 95 -55 -10 -53 2074 -53 1730 0 1931 2 1980 16 143 42 250
160 279 309 8 44 10 574 8 1980 -3 1812 -4 1923 -21 1965 -47 120 -147 214
-265 250 -56 17 -93 20 -287 20 l-224 0 -3 223 c-3 189 -6 226 -20 246 -43 61
-124 79 -186 41 -56 -34 -62 -64 -62 -300 l0 -210 -535 0 -535 0 0 215 c0 240
-4 260 -63 295 -51 32 -110 27 -153 -12 -48 -45 -54 -79 -53 -303 l1 -190
-531 0 -531 0 -2 215 c-3 190 -5 219 -22 246 -38 63 -120 83 -183 44z m-61
-874 c3 -89 5 -97 32 -125 48 -50 108 -58 175 -22 34 19 53 69 59 158 l5 83
528 0 c497 0 529 -1 529 -17 2 -139 19 -201 61 -224 67 -36 127 -28 175 22 27
28 29 36 32 125 l4 94 534 0 534 0 0 -77 c0 -124 45 -187 133 -186 91 2 129
51 135 176 l4 87 217 0 c318 0 311 7 311 -315 l0 -215 -2005 0 -2005 0 0 198
c0 108 4 212 10 231 11 38 44 79 75 91 11 5 117 9 237 9 l216 1 4 -94z m3468
-2256 c0 -1693 4 -1582 -56 -1629 l-27 -21 -1914 0 c-2141 0 -1957 -7 -1994
73 -18 41 -19 91 -19 1578 0 845 3 1539 7 1542 3 4 906 7 2005 7 l1998 0 0
-1550z"/>
<path d="M2754 2951 c-32 -20 -64 -74 -64 -110 0 -50 43 -101 319 -376 160
-159 291 -292 291 -295 0 -3 -354 -5 -788 -5 -714 -1 -790 -2 -818 -17 -87
-47 -93 -176 -9 -228 32 -20 47 -20 821 -20 l789 0 -287 -287 c-157 -159 -293
-302 -302 -320 -22 -44 -20 -84 7 -124 30 -46 87 -73 135 -64 32 6 94 63 462
428 234 232 430 431 437 442 15 25 16 75 2 112 -12 32 -819 847 -861 869 -37
20 -97 18 -134 -5z"/>
</g>
</svg>
