<?xml version="1.0" standalone="no"?>
<!DOCTYPE svg PUBLIC "-//W3C//DTD SVG 20010904//EN"
 "http://www.w3.org/TR/2001/REC-SVG-20010904/DTD/svg10.dtd">
<svg version="1.0" xmlns="http://www.w3.org/2000/svg"
 width="512.000000pt" height="512.000000pt" viewBox="0 0 512.000000 512.000000"
 preserveAspectRatio="xMidYMid meet">

<g transform="translate(0.000000,512.000000) scale(0.100000,-0.100000)"
fill="#000000" stroke="none">

   <style>
        path {
            fill: white;
        }
        @media (prefers-color-scheme: dark) {
            path { 
                fill: white;
                }
        }
    </style>

<path d="M2140 5107 c-41 -20 -60 -72 -60 -163 l0 -81 -107 -28 c-458 -117
-886 -384 -1191 -740 -352 -411 -546 -907 -569 -1450 l-6 -149 -104 -139
c-107 -143 -116 -165 -90 -217 20 -41 72 -60 163 -60 l81 0 28 -107 c114 -444
369 -862 708 -1164 416 -369 919 -572 1477 -596 l154 -6 140 -105 c133 -99
142 -104 179 -99 68 9 81 32 87 150 l5 102 121 32 c373 98 742 302 1012 559
59 56 62 62 62 106 0 39 -5 50 -31 72 -19 16 -43 26 -63 26 -36 0 -56 -14
-193 -134 -246 -215 -599 -388 -936 -459 -68 -14 -127 -33 -137 -42 -11 -10
-25 -38 -32 -63 l-13 -44 -232 191 c-128 106 -233 195 -233 199 0 4 107 78
237 164 l237 157 30 -30 c29 -29 34 -31 86 -26 76 7 193 48 335 117 463 226
790 652 893 1160 l19 93 68 -107 c37 -59 77 -113 89 -121 21 -15 72 -20 100
-9 9 4 66 64 127 135 61 71 113 129 116 129 7 0 -6 -103 -28 -215 -24 -117
-55 -226 -98 -344 -17 -47 -31 -98 -31 -113 0 -99 139 -127 185 -38 31 60 83
217 114 341 41 169 61 306 68 484 l6 149 104 139 c115 154 124 181 79 234 -23
27 -30 28 -127 33 -100 5 -104 6 -111 30 -4 14 -19 70 -34 125 -116 432 -382
854 -726 1150 -410 353 -909 549 -1453 572 l-149 6 -139 104 c-143 107 -165
116 -217 90z m394 -492 c124 -103 226 -190 226 -193 0 -4 -107 -78 -237 -164
l-237 -157 -29 29 c-39 39 -78 39 -204 -1 -560 -179 -991 -659 -1108 -1233
l-22 -108 -71 111 c-39 60 -80 115 -91 121 -22 11 -71 13 -95 4 -9 -4 -67 -65
-129 -137 -73 -86 -113 -125 -115 -114 -2 9 6 73 18 142 148 874 796 1555
1662 1745 150 33 178 51 178 117 0 26 4 34 14 30 8 -3 116 -90 240 -192z m464
49 c460 -92 903 -354 1204 -713 233 -279 381 -584 462 -954 14 -60 32 -117 41
-128 10 -10 38 -24 62 -31 l45 -13 -192 -232 c-105 -128 -195 -233 -198 -233
-4 0 -78 107 -164 237 l-157 237 29 29 c40 40 39 82 -5 216 -186 558 -659 980
-1229 1096 l-108 22 111 71 c60 39 115 80 121 91 11 22 13 71 4 95 -4 9 -64
66 -135 127 -71 61 -129 113 -129 116 0 8 103 -6 238 -33z m-151 -683 c279
-57 536 -195 737 -396 116 -116 203 -238 276 -390 80 -164 80 -165 36 -165
-49 0 -86 -34 -93 -86 -5 -39 -1 -46 102 -184 l108 -144 -6 -120 c-17 -370
-168 -707 -432 -970 -109 -108 -233 -195 -380 -266 -161 -78 -165 -79 -165
-40 0 17 -5 40 -10 51 -15 28 -68 52 -101 45 -15 -3 -90 -51 -165 -107 l-138
-102 -120 6 c-573 26 -1076 384 -1285 915 l-19 48 44 12 c54 15 88 60 80 108
-3 20 -44 84 -107 169 l-102 137 6 122 c25 573 384 1076 916 1285 l47 19 12
-44 c15 -54 60 -88 109 -80 20 3 80 42 165 105 l133 101 125 -4 c70 -3 170
-14 227 -25z m-1985 -1458 l157 -237 -30 -30 c-29 -29 -31 -34 -26 -86 11
-114 112 -354 214 -510 241 -368 623 -629 1047 -715 l108 -22 -111 -71 c-60
-39 -115 -80 -121 -91 -13 -25 -13 -77 0 -101 6 -11 67 -67 137 -127 69 -59
121 -109 114 -111 -19 -6 -220 28 -338 59 -443 113 -847 376 -1135 737 -203
255 -354 576 -422 897 -28 136 -48 165 -113 165 -27 0 -34 3 -29 15 7 19 376
465 385 465 3 0 77 -107 163 -237z"/>
<path d="M4383 1390 c-13 -5 -32 -24 -43 -42 -27 -43 -20 -84 20 -120 42 -39
92 -38 131 1 77 77 -7 202 -108 161z"/>
</g>
</svg>
