<?xml version="1.0" standalone="no"?>
<!DOCTYPE svg PUBLIC "-//W3C//DTD SVG 20010904//EN"
 "http://www.w3.org/TR/2001/REC-SVG-20010904/DTD/svg10.dtd">
<svg version="1.0" xmlns="http://www.w3.org/2000/svg"
 width="512.000000pt" height="512.000000pt" viewBox="0 0 512.000000 512.000000"
 preserveAspectRatio="xMidYMid meet">

    <style>
        path {
            fill: white;
        }
        @media (prefers-color-scheme: dark) {
            path { 
                fill: white;
                }
        }
    </style>

<g transform="translate(0.000000,512.000000) scale(0.100000,-0.100000)"
fill="#000000" stroke="none">
<path d="M2112 5109 c-338 -44 -600 -226 -698 -485 -20 -53 -54 -192 -54 -220
0 -2 -15 -4 -33 -4 -89 0 -218 -60 -294 -136 -238 -238 -134 -652 193 -764
110 -38 269 -36 386 6 37 13 38 12 44 -13 11 -42 -4 -232 -25 -318 -11 -44
-42 -160 -70 -257 -57 -201 -78 -310 -87 -448 -18 -272 87 -674 289 -1102 l54
-116 -168 -578 c-93 -319 -169 -591 -169 -606 0 -17 10 -34 26 -47 26 -21 37
-21 464 -21 l437 0 21 23 c29 31 29 77 -1 105 -23 21 -29 22 -398 24 l-375 3
129 445 c72 245 131 447 133 449 2 2 27 -12 56 -31 178 -117 413 -211 693
-278 251 -60 381 -74 700 -74 278 0 415 10 588 43 34 6 47 5 47 -3 0 -15 48
-457 55 -513 l6 -43 -701 0 c-438 0 -708 -4 -720 -10 -43 -23 -40 -116 5 -134
29 -11 1514 -7 1535 4 43 23 43 32 -5 467 -49 447 -52 466 -92 588 -89 276
-290 517 -533 640 -63 32 -185 75 -212 75 -10 0 -18 2 -18 4 0 3 16 35 34 73
84 166 64 341 -53 475 -39 43 -153 129 -218 162 -48 24 -88 21 -112 -10 -41
-52 -27 -84 59 -134 164 -96 224 -174 224 -290 -1 -94 -30 -153 -115 -235 -75
-71 -86 -102 -51 -145 16 -19 32 -24 114 -31 158 -13 289 -66 426 -172 63 -48
167 -160 154 -165 -5 -1 -64 11 -130 28 -182 45 -285 39 -411 -25 -30 -15 -78
-49 -107 -77 l-52 -49 -35 18 c-18 10 -145 83 -280 163 l-247 145 0 142 c0
130 -2 145 -20 163 -27 27 -81 26 -106 -1 -17 -19 -19 -40 -22 -188 -2 -120 1
-173 10 -191 16 -31 690 -430 726 -430 23 0 33 9 113 102 54 63 129 99 217
106 65 4 123 -7 433 -89 35 -9 38 -12 67 -102 17 -50 32 -108 34 -127 l3 -35
-100 -17 c-265 -44 -672 -48 -930 -9 -271 41 -530 118 -740 220 -152 75 -211
119 -225 169 -6 23 -10 220 -10 529 l0 492 -22 21 c-27 25 -69 26 -98 2 -18
-14 -24 -32 -28 -75 l-4 -57 -83 0 c-96 0 -87 -12 -106 140 -21 171 2 346 82
615 86 292 116 502 91 633 l-10 53 42 27 c22 14 58 39 78 55 l37 28 40 -26
c50 -34 121 -55 182 -55 39 0 51 4 68 26 47 59 5 124 -79 124 -70 0 -154 70
-165 138 -13 73 -9 99 20 127 37 38 86 34 132 -10 22 -21 47 -35 62 -35 54 0
213 201 278 350 30 70 35 76 70 83 218 48 313 98 393 209 l28 38 20 -48 c29
-68 42 -142 42 -232 l0 -79 -42 16 c-24 8 -89 18 -145 20 -99 5 -102 5 -127
-20 -31 -31 -33 -66 -7 -98 17 -21 31 -24 117 -30 55 -4 115 -14 135 -23 l37
-15 4 -88 c5 -102 23 -145 100 -238 l50 -59 -27 -23 c-14 -13 -39 -23 -56 -23
-44 0 -73 -35 -89 -108 -8 -40 -18 -62 -27 -62 -23 0 -86 36 -112 64 -40 42
-99 30 -120 -25 -20 -53 36 -120 139 -167 30 -14 56 -26 58 -27 10 -8 -57
-142 -89 -179 -52 -59 -87 -70 -175 -56 -100 16 -136 26 -261 76 -103 42 -115
44 -140 32 -32 -15 -49 -54 -39 -92 4 -18 20 -33 51 -48 l45 -22 0 -104 c0
-95 -2 -104 -17 -97 -51 19 -126 26 -249 23 -129 -3 -137 -4 -155 -27 -24 -30
-24 -62 1 -94 20 -25 23 -26 173 -29 176 -4 211 -15 262 -87 l30 -43 5 -304
c5 -296 6 -304 27 -325 27 -27 75 -29 103 -4 19 17 20 30 20 302 0 185 4 283
10 283 6 0 55 -22 110 -50 108 -54 147 -61 175 -30 22 24 24 72 5 95 -8 9 -90
55 -182 101 l-168 84 0 126 c0 116 1 126 18 119 45 -17 164 -37 232 -38 132
-3 217 56 293 201 43 82 78 182 103 286 17 74 20 80 53 94 69 28 113 76 131
142 14 52 -2 103 -52 165 -85 108 -88 114 -88 174 0 31 7 92 15 136 45 250
-11 489 -149 642 -65 71 -167 143 -203 143 -32 0 -73 -42 -73 -76 0 -26 10
-37 84 -97 l30 -24 -18 -46 c-20 -53 -79 -111 -143 -139 -53 -23 -163 -48
-218 -48 -55 0 -80 -21 -101 -83 -30 -91 -67 -158 -166 -301 -3 -5 -23 -2 -47
8 -55 21 -145 20 -196 -3 -46 -21 -101 -79 -122 -129 -17 -41 -19 -149 -3
-198 9 -26 9 -38 0 -49 -14 -17 -110 -79 -114 -74 -19 25 -153 273 -172 319
-34 84 -54 187 -54 278 1 350 234 583 634 632 99 13 275 8 363 -9 51 -10 83 3
101 42 16 34 -1 76 -38 94 -61 28 -316 41 -458 22z m-748 -881 c3 -13 8 -41
11 -63 12 -83 58 -195 139 -345 47 -85 82 -158 80 -162 -2 -4 -39 -14 -81 -24
-186 -41 -359 27 -427 169 -83 172 -5 369 169 429 71 25 104 23 109 -4z m456
-2425 l-1 -188 -25 60 c-28 68 -104 289 -104 305 0 6 28 10 65 10 l65 0 0
-187z"/>
<path d="M2625 4025 c-36 -35 -32 -70 13 -115 68 -68 207 -89 261 -39 29 28
28 79 -3 108 -21 20 -32 22 -68 17 -38 -6 -50 -3 -89 24 -54 36 -82 38 -114 5z"/>
</g>
</svg>
